<?xml version="1.0" encoding="utf-8" standalone="yes"?><!DOCTYPE svg PUBLIC "-//W3C//DTD SVG 1.1//EN" "http://www.w3.org/Graphics/SVG/1.1/DTD/svg11.dtd"><svg xmlns="http://www.w3.org/2000/svg" xmlns:xlink="http://www.w3.org/1999/xlink"><symbol viewBox="0 0 900 600" id="fr" xmlns="http://www.w3.org/2000/svg"><path fill="#ED2939" d="M0 0h900v600H0z"/><path fill="#fff" d="M0 0h600v600H0z"/><path fill="#002395" d="M0 0h300v600H0z"/></symbol><symbol viewBox="0 0 60 30" id="gb" xmlns="http://www.w3.org/2000/svg"><clipPath id="ba"><path d="M30 15h30v15zv15H0zH0V0zV0h30z"/></clipPath><path d="M0 0v30h60V0z" fill="#00247d"/><path d="M0 0l60 30m0-30L0 30" stroke="#fff" stroke-width="6"/><path d="M0 0l60 30m0-30L0 30" clip-path="url(#ba)" stroke="#cf142b" stroke-width="4"/><path d="M30 0v30M0 15h60" stroke="#fff" stroke-width="10"/><path d="M30 0v30M0 15h60" stroke="#cf142b" stroke-width="6"/></symbol><symbol viewBox="-45.2 266.1 709.9 268.3" id="sponsors--2017--michelin" xmlns="http://www.w3.org/2000/svg"><path fill="none" d="M375.7-353h612v230.5h-612z"/><path fill="#FFF" d="M575.3 352.8H41.5V448H578v-95.2z"/><path fill="#00509C" d="M44.2 355.5h531.1v89.4H44.2z"/><path fill="#F1E400" d="M476.7 427.6H44.2v5.5h430.1z"/><g fill="#FFF"><path d="M204 376.6L189.7 398s1-11.2 1-13.9c0-2 0-7.5-5.1-7.5h-22.4l-14.3 39.8h17.7l10.5-28.9-2.4 28.9h15.6l19-28.2-10.2 28.2h17.7l14.6-39.8H204zM299.5 415.7c-1 0-7.5 1.4-14.6 1.7-12.6.3-23.5-4.8-23.5-13.6 0-15.6 15.6-24.5 27.5-26.9 5.1-1 15.3-2.4 25.5.3l-5.8 13.9c-1.7-3.7-6.1-3.7-7.8-4.1-4.4 0-7.8 1-10.5 2.4-5.8 2.7-11.2 11.6-2.7 14.6 4.8 1.7 10.5.3 16.7-.7l-4.8 12.4zM479.4 416.4H460l15-39.8h19.4zM247.2 416.4h-19.4l15-39.8h19zM351.6 376.6l-5.5 14.3h-9.5l5.1-14.3h-18.4l-14.6 39.8h18.4l5.1-13.6h9.8l-5.1 13.6h18.4l14.6-39.8zM440.3 403.1l9.9-26.5h-19.1l-14.6 39.8h37.7l4.8-13.3zM542 376.6l-10.2 27.5c0-2.7.7-13.6 1-20.1 0-2.7-.3-4.4-1.7-5.8-1.4-1.7-3.4-1.7-3.4-1.7h-22.4l-14.6 39.8H507l10.5-28.2-1.4 28.2h27.5l14.6-39.8H542zM388.3 405.5l1.7-4.4h21.1l3.7-9.9h-21.1l1.7-4.4h22.1l3.8-10.2h-40.5l-14.6 39.8H407l4.1-10.9z"/></g><path fill="#010202" d="M150.6 394.6c1-1.7 0-5.1-2.7-8.2-2.4-2.7-5.1-3.4-5.4-4.8 3.1-6.1-.3-11.2-4.8-13.3.3-2.7-1-5.8-3.4-7.8 1-2.4 2.4-9.2-2.7-13.3 2-8.5-6.5-12.9-10.9-13.6-2-1.7-5.4-2.7-9.2-3.1 2.7-4.1 2-9.9-1.4-12.9.3-4.8-3.1-8.8-7.5-10.5-1.7-3.7-10.2-3.4-11.2.3-5.1 1.7-7.8 7.5-7.5 12.2-3.1 3.4-3.1 8.8 0 12.6-2.7 0-6.5.7-8.8 1.7-2-1-4.4-1.4-6.8-1-.7-.3-2-1-3.1-1.4-1-1.4-2-2.4-3.4-3.4-.7-2.4-2.7-4.1-4.4-5.1.3-1.7-.3-3.7-1-4.8-1-1.7-.7-4.4-.3-4.8 1.4-1.4 0-2.7-.3-3.4-2.7-2.7-5.4-1.4-6.1 0-2.7-4.8-5.4-5.8-7.5-5.1-2.4-1.7-6.1-.7-5.8 1.4-1.4 1-2.7 1.7-.3 5.8-.3 9.2.7 11.6 6.5 16.7-1.7 1.7-2.7 5.8-1 8.8-.3 4.4 1.7 8.5 4.8 10.5.7 6.1 6.8 9.9 10.9 10.9 2.7 3.7 6.5 5.8 10.2 6.1.3 1.7 1 3.4 2 5.1-1 3.4-1 6.8.3 9.9-2.7 3.1-3.7 7.5-2.4 12.2-3.4 3.7-4.4 9.9-2 15 0 0-1 1.4-1.4 2.7-2.4 1-4.4 3.7-5.4 6.8-1 2.4-.7 5.8 0 8.5-3.4 3.1-5.4 10.5.7 16.7-1.4 4.4-4.4 8.2-7.8 12.6-2.4 3.1-3.1 4.8 0 8.8 2.4 3.1 6.5 5.1 9.5 5.4 6.5.3 11.2-1 11.9-5.8.3-2.7-1.4-8.5-1.7-9.9 0-1.4.3-3.4 1.7-6.8 5.8-1.4 8.8-5.8 9.5-9.9 4.4-2.4 7.5-7.5 6.1-13.3.7-1 1-1.7 1.7-3.1 0 2.4 1.7 4.1 2.4 5.4-2.7 6.5.7 11.9 4.8 14.6-6.5 9.2.7 13.9 2.4 15.6 2.4 2.4 2.4 6.1 6.1 7.5 3.1 1 13.6 0 15.6-4.4.3-1 1-2.4.3-3.1 0-3.1-2-5.4-5.4-7.5-4.1-2.4-3.7-1.7-5.8-7.5 6.1-3.1 7.1-9.9 6.8-12.9 4.4-5.4 4.1-9.9 1.7-12.9.7-2 .7-4.1 0-6.1 3.4-3.4 5.1-8.2 3.7-13.3 2-3.1 3.1-6.8 2-10.5 1.7 2.7 4.8 4.1 8.2 3.7 0 0 .3 1 .3 1.4-1 1.7-.7 4.1 2 5.8.3.7.7 1.4 1.4 2 0 1 2 4.4 4.8 2.4 0 0 2.7-1.7 3.1-2 .9 1.5 6.4.2 6-3.6z"/><path fill="#FFF" d="M125.5 377c6.8-.7 12.9-8.2 7.1-13.9-1 1.4-2.7 2.7-4.1 3.1-.3 3.1-2 5.4-3.4 6.8.4 1.2.4 4 .4 4z"/><path fill="#FFF" d="M136.7 371.2c-1.7 4.4-6.1 6.8-11.2 7.5-.7 3.7 3.7 8.8 10.9 5.8 5-2.1 6.7-10.3.3-13.3zM134.6 390.2c-.7.7-.3 2 .3 2.7 0 0 .3-1.7.7-2.4-.3-.3-.6-.3-1-.3zM139.1 393.6c-.3-.7-.3-1.7-1.4-2-1.4-.3-1.4 3.7-.3 3.7.3-.7 1-1.3 1.7-1.7zM140.8 394.3c-1.7.7-3.1 2-2.4 3.1.3.7.7.3 1.7-.3.7-.3 1.7-1.4 2-1.4-.7-.7-1.3-1.4-1.3-1.4zM142.5 385.8c-.7-.3-1.7-1.4-2-2-1.4 1.4-4.4 3.1-5.8 3.4 0 0 .3 1.4.7 1.7.7 0 1 .7 1.7 1 .7-.3 2.7 0 3.1 2 .7.7 2.4 1 3.1 1.7 2 2.7 3.7 2.4 4.4 2 2-1.4-.7-2.7-2-4.4-.7-.7-2.7-4.1-2.7-4.8 0-.3.7 0 1 .3s3.1 3.7 4.8 5.1c-2.3-4-6.3-6-6.3-6zM100 379.7c25.5-.3 28.6-15.6 25.5-21.4-7.8 8.2-34 12.9-46.9 2.7-2.4 2.7-5.4 3.4-8.5 3.7.6 7.8 14.2 15 29.9 15z"/><path fill="#FFF" d="M82.6 347.7c.3 4.8-1.7 9.5-2.7 11.2 2.4 1.7 7.1 5.4 18.4 5.4 16.7.3 34.3-7.8 24.5-21.4-4.5 5.5-25.6 10.6-40.2 4.8zM60.5 345.7c4.1-3.7 4.4-8.5 2.4-11.9-.3-.7-1-1.4-1.7-2-1 7.1-10.9 12.6-17.3 7.8 2.3 10.2 12.2 10.2 16.6 6.1z"/><path fill="#FFF" d="M68.7 352.5c5.8-6.5 0-16.7-2.7-17.3 2 9.9-8.2 18-17 13.9 2 6.1 12.5 11.5 19.7 3.4z"/><path fill="#FFF" d="M60.5 358.9c5.1 5.4 19 5.1 19.7-7.5.7-8.5-3.1-13.3-9.2-15 7.2 13-1.3 22.2-10.5 22.5zM71.4 372.2c-2.4 14.6 17 19.4 28.6 19 19.4-.7 23.8-10.2 22.8-15.6-12.3 9.5-38.8 8.5-51.4-3.4z"/><path fill="#FFF" d="M81.3 403.1c10.2 2.4 18.7-2.7 18.7-9.5-5.1 0-21.4-.3-29.2-11.2-5.5 7.5.9 18 10.5 20.7z"/><path fill="#FFF" d="M95.5 403.5c-9.5 4.8-22.4 1.4-27.2-8.8-6.8 11.2 4.8 21.1 13.3 20.7 10.5-.7 13.6-7.2 13.9-11.9z"/><path fill="#FFF" d="M66.6 409.3c-3.4 5.8.7 12.2 5.1 13.9 9.2 3.7 15.3-2.4 15-6.8-7.8 2-15.3-.3-20.1-7.1zM59.2 427.3c-4.1 3.7-1.4 12.9 5.1 15.3 9.2 3.1 13.3-3.1 13.9-6.5-2.4.7-13.3 2.7-19-8.8z"/><path fill="#FFF" d="M71.1 424.9c-4.8-2.4-7.8-6.1-8.2-11.6-6.8 6.8-1 18 5.4 20.4 12.9 4.4 17.7-6.5 16.3-9.9-5 3.8-11.2 2.5-13.5 1.1zM117.6 457.2l.3.3c-1 2-8.8 4.1-11.9 2.4-3.7-1.7-3.1-3.7-5.4-6.1-5.4-5.1-4.4-7.1-3.7-9.9.3-1.4 1-2 2-3.4 3.4 1.4 5.1 1 8.5.3 0 .3.3 1 .3 1.4-2.4.3-4.4.7-4.4.7l.7 1.7s2-.7 4.4-.7c0 0 .3 1.4.7 1.7-2 0-4.1.7-4.1.7l.7 1.7s2.7-1 5.1-.7c2 2 10.9 4.4 6.8 8.8-1.7 1.7-5.8 2.4-8.8 2.4l-.3.3c-.4 1.1 5.7 1.1 9.1-1.6zM113.2 429.3c-2 1.7-5.1 3.1-9.2 2.7-4.4 0-7.5-2-10.2-5.1-1.7 8.2 3.4 11.9 9.2 12.2 10.2.8 10.6-8.8 10.2-9.8z"/><path fill="#FFF" d="M104 430.3c10.9 0 14.3-9.2 12.2-13.3-6.1 7.5-20.7 6.1-23.5-3.4-4 6.9 2.5 16.4 11.3 16.7z"/><path fill="#FFF" d="M105.4 420.1c5.4 0 11.6-3.7 9.9-10.5-6.1 4.1-13.9 3.7-19.4-.3-.3 1-1.4 2-1.7 2.7.7 5.1 6.1 8.1 11.2 8.1z"/><path fill="#FFF" d="M98.6 401.4l-.7.7c0 1.7-.3 4.1-1 5.8 7.5 6.5 23.5 2.7 22.4-10.5-5.4 5.1-14.2 6.4-20.7 4z"/><path fill="#FFF" d="M102.3 393.3c0 2.4-1 4.8-2.4 6.5 9.9 2.7 22.1-2 21.1-13.6-2.7 3-8.8 6.7-18.7 7.1zM53.4 338.9c7.1-3.4 6.8-10.9 2.4-12.6-1 1-.7 3.4-.7 3.7 0 1.4-1.7 2-2 1.7-.7-.7 1-1.7.3-3.4s1.4-2.7 1.4-5.1c0-1.4-1.4-4.1-1.4-4.4-.7-1.7-.7-4.8.3-6.1-.7-.7-1.7-1.4-2.7 0-1.4 2-.7 4.4 0 6.5 0 0-1.4 0-2 2l-.7.7H48c-.3-1.4.3-2.4.7-3.4 0-.3-.7-1.7-.7-4.1-1.4-3.1-3.4-6.1-5.1-6.5 1.4 2 3.7 6.8 4.1 7.1.7 1.4-.7 1.7-.7 1.7-2-4.4-4.1-7.8-5.4-9.2-1-1-2.4-1.4-2.7-.7.3 0 1 .7 1.4 1.4 1.7 2 5.1 9.2 5.1 9.2s-.3.3-.7.3c-.7 0-1.4-1-2-3.1-1-1.7-2.7-4.1-3.4-5.1-.7-1-1.4-.7-1.7-.3.3 1 1 1.7 1.4 2.7 1.4-.3 2.7 1 3.1 2.4.3 1.4.7 4.4 1.4 5.8-.3 0-1 .7-1 .7-.7-1-1.4-4.8-1.7-6.1 0-.3-.3-1-1.4-1.4-.3 0-.3 0-.3.3-.3 7.5 0 9.5 6.8 14.6.3.3 1 1.4 1.7 2.4.3 1 1.4 2 3.1 2l.7.7c-1.4 1-3.7.3-4.1-.3-.3-.7-1.4-2-1.4-2-5.4 4.5.7 11.3 8.2 7.9zM61.2 442.9c-2.7 6.1-5.4 8.5-8.5 13.3-2 2.7-1.4 4.1 0 5.8 2.7 3.1 7.5 4.8 10.9 3.7v-.3c-4.1.3-7.8-1-9.9-4.1l.3-.3c4.8 3.7 11.2 2.7 13.9 1.4.7-.3 1-1.4 1-2-.3-2-1.4-5.4-1.7-7.5-.3-1.7.3-4.4 1.7-7.5-2.3-.1-6.7-.4-7.7-2.5zM123.8 340.6c3.4 2.4 4.1 7.1 4.1 9.2 3.4-6.8-1.7-10.9-4.4-11.6.6 1 .6 2.4.3 2.4zM129.2 362.7c6.5-3.7 2.4-11.9 1.4-12.6-.3.7-1 3.1-3.4 5.8 1 1.7 1.7 4.1 2 6.8zM82.3 345c4.8 2 9.9 3.1 15.3 3.1 13.9 0 23.5-4.1 24.1-8.2.7-3.4-5.8-5.4-12.6-6.1-1 1-2.4 1.4-2.7 1.4-.3 0-.7-.3-.3-.7 1-.7 2-1.4 1-3.4.7 0 3.4-1 3.4-5.4 0-3.4-1.7-5.8-3.4-6.5 0 0-.7-.7 0-.7.3-4.1-2.4-7.8-7.8-8.8v-.3c.3 0 .3-.3.3-.3-.3-1-4.1-1.4-5.4 0-.3.3.7.7 1 .7s.7.7 0 .7c-3.1 0-8.5 2.7-8.5 9.9.3 0 1.7-.3 2.4-.3.3 0 .3.7 0 .7-5.1.3-7.1 9.2 0 12.2 0 0 .3.3 0 .3-.7.7-1.4 1.7-.3 2.4.3.3.7.7.7 1-.3.3-1 .3-1.7 0-3.4-1.7-7.5-.7-10.5.3 2.3 1.5 4 4.6 5 8z"/><path fill="#010202" d="M46.9 322.6s-1-.7-1.7-1c-1-.3-2-.3-2-.7 0-.3 1-.3 1.7-.3s1 .3 1.7.3c.3.3.7 1.3.3 1.7zM64.9 452.8c-1.7-.7-4.1-.7-5.4-.7v-1.7c1.7 0 4.1.3 6.1 1l-.7 1.4zM66 449.4c-2.4-.7-3.1-.7-5.8-1v-1.7c2.7 0 3.4.3 6.1 1l-.3 1.7z"/><g><path fill="#010202" d="M104 326.3s-.3 0-.7.3c-4.8-1-6.5.3-8.8.3 0-.3 0-.7-.3-.7l-.3.3c-.7 1-1 1.7-.7 1.7.3.3.7 0 1-.7.3 0 1.4 0 2.4.7.7.7 2.4 2.7 4.1 2 1.4-.7 2.4-2.7 3.4-2.7h1s-.7-1.5-1.1-1.2zm-3.7 3.1c-1.4.7-2.4-1-3.7-1.7 1.4-.3 4.1-.7 6.1-.3-.7.3-2.1 1.6-2.4 2zM102.3 314.1c-1.7.3-2.7 2.4-2.7 5.1 0 1.7.7 3.1 1.7 3.7.7.3 1 .7 1.7.7 1.7 0 3.1-2.4 2.7-5.1 0-1.7-.7-3.1-1.7-3.7-.3-.7-1-.7-1.7-.7z"/><path fill="#FFF" d="M104.4 321.5c.3-.7.7-1.7.7-3.1 0-1.4-.7-2.7-1.4-3.1-.3-.3-.7-.3-1-.3-1 0-2 2-2 4.1v.7c0-1.4 1-2.4 1.7-2.4 1 0 2 1.4 2 3.1.3 0 0 .4 0 1z"/><g><path fill="#010202" d="M94.9 314.1c-1.7 0-3.1 2.4-3.1 5.1 0 1.7.7 3.1 1.7 4.1.7.3 1 .7 1.7.7 1.7 0 3.1-2.4 3.1-5.1 0-1.7-.7-3.1-1.7-4.1-.4-.4-1.1-.7-1.7-.7z"/><path fill="#FFF" d="M96.9 321.2c.3-.7.3-1.4.3-2.4 0-1.4-.7-2.7-1.4-3.4-.3-.3-.7-.3-1-.3-1.4 0-2.4 2-2.4 4.1 0 1 .3 1.7.7 2.4 0-.3-.3-.7-.3-1 0-1.7.7-3.1 1.7-3.1s2 1.4 2 3.1c.4-.1.4.3.4.6z"/></g></g><path fill="#27509B" d="M138.7 453.8l-2.7 7.1c-.7 2-2.4 5.8 1 5.8 3.1 0 4.1-2.7 5.1-5.4l2.7-7.5h3.1l-3.4 9.2c-1.4 3.7-3.7 6.1-7.8 6.1-5.1 0-5.8-2.7-4.1-7.1l3.1-8.2h3zM152 459.2c.3-.7.3-1.4.7-1.7h2.7l-.3 1c1-.7 2-1.4 3.4-1.4 2 0 3.4 1.4 3.1 3.4 0 .7-.3 1.7-.7 2.4l-2 5.4h-3.1l2-5.1c.3-.7.7-1.4.7-2.4s-.3-1.7-1.4-1.7c-2 0-3.1 1.7-3.7 3.4l-2 5.4h-3.1l3.7-8.7zM169.3 462c.7-1.4 1.7-2.7 3.7-2.7 1.4 0 1.7.7 1.7 1.7 0 .3 0 .3-.3.7h-5.1v.3zm7.2 2c.3-.7.7-1.7.7-2.4.3-2.7-1-4.1-4.1-4.1-3.7 0-6.8 3.4-7.5 6.8-.7 3.4 1.4 4.8 4.8 4.8 1.4 0 2.4-.3 3.7-.7l.7-2.4c-1 .3-2.4.7-3.4.7-2 0-3.1-.7-2.7-2.7h7.8zM192.4 458.9c0-.3.3-1 .3-1.4h2.7l-.3 1.4c1-1 2.4-1.7 3.7-1.7s2.7.7 2.4 2c1-1.4 2.7-2 4.4-2 1.7 0 3.1 1.4 2.7 3.1 0 1-.7 2-1 3.1l-2 5.4h-3.1l2-5.4c.3-.7.7-1.7.7-2.4s-.3-1.4-1-1.4c-2 0-3.1 2.4-3.4 3.7l-2 5.1h-3.1l2-5.4c.3-.7.7-1.7.7-2.4s-.3-1.4-1-1.4c-2 0-3.1 2.4-3.4 3.7l-2 5.1h-3.1l3.8-9.1zM215.9 462c.7-1.4 1.7-2.7 3.7-2.7 1.4 0 1.7.7 1.7 1.7 0 .3 0 .3-.3.7h-5.1v.3zm7.1 2c.3-.7.7-1.7.7-2.4.3-2.7-1-4.1-4.1-4.1-3.7 0-6.8 3.4-7.5 6.8-.7 3.4 1.4 4.8 4.8 4.8 1.4 0 2.4-.3 3.7-.7l.7-2.4c-1 .3-2.4.7-3.4.7-2 0-3.1-.7-2.7-2.7h7.8zM230.5 457.5h3.1l-4.1 11.2h-3.1l4.1-11.2zm2.1-4.7h3.1l-1 2.7h-3.4l1.3-2.7zM241.4 452.4h3.1l-6.1 16h-3.1l6.1-16zM250.6 452.4h3.1l-6.1 16h-3.1l6.1-16zM258.1 462c.7-1.4 1.7-2.7 3.7-2.7 1.4 0 1.7.7 1.7 1.7 0 .3 0 .3-.3.7h-5.1v.3zm7.1 2c.3-.7.7-1.7.7-2.4.3-2.7-1-4.1-4.1-4.1-3.7 0-6.8 3.4-7.5 6.8-.7 3.4 1.4 4.8 4.8 4.8 1.4 0 2.4-.3 3.7-.7l.7-2.4c-1 .3-2.4.7-3.4.7-2 0-3.1-.7-2.7-2.7h7.8zM279.5 467.1c-.3.7-.3 1.4-.7 1.7h-2.7l.3-1c-1 .7-2 1.4-3.4 1.4-2 0-3.4-1.4-3.1-3.4 0-.7.3-1.7.7-2.4l2-5.4h3.1l-2 5.1c-.3.7-.7 1.4-.7 2.4s.3 1.7 1.4 1.7c2 0 3.1-1.7 3.7-3.4l2-5.4h3.1l-3.7 8.7zM288.7 459.2c0-.3.3-1 .3-1.4h2.7l-.7 2c.7-1.4 2.4-2.4 3.7-2.4h1l-1 2.7c-.3 0-.7-.3-1-.3-2 0-3.4 1.7-4.1 3.7l-1.7 5.1h-3.1l3.9-9.4zM300.9 462c.7-1.4 1.7-2.7 3.7-2.7 1.4 0 1.7.7 1.7 1.7 0 .3 0 .3-.3.7h-5.1v.3zm7.1 2c.3-.7.7-1.7.7-2.4.3-2.7-1-4.1-4.1-4.1-3.7 0-6.8 3.4-7.5 6.8s1.4 4.8 4.8 4.8c1.4 0 2.4-.3 3.7-.7l.7-2.4c-1 .3-2.4.7-3.4.7-2 0-3.1-.7-2.7-2.7h7.8zM325 459.9h-2.4l.7-2h2.4c1-2.7 2.4-5.4 5.8-5.4.7 0 1.4 0 1.7.3l-1 2c-.3 0-.7-.3-1-.3-1.7 0-2.4 2-2.7 3.1h2.7l-.7 2h-2.7l-3.4 8.8h-3.1l3.7-8.5zM335.2 465.7c.3-1.7 2.7-2 4.1-2h1c-.7 1.7-1.7 3.4-3.7 3.4-.7-.4-1.4-.7-1.4-1.4zm3.8 3.1h2.4c.7-2 2.4-6.5 2.7-7.8.3-2.7-1.7-3.4-3.7-3.4-1.4 0-2.7.3-4.1.7l-.7 2.4c1.4-.7 2.4-1 3.7-1 1 0 2 .3 2 1.4 0 .3 0 .7-.3 1h-1c-2.7 0-6.8.3-7.5 4.1-.3 2 1 3.1 3.1 3.1 1.7 0 2.7-.7 4.1-2l-.7 1.5zM348.8 471.5c.7.3 1.4.7 2 .7.3 0 1.4-.3 1.4-.7 0-.7-.7-.7-1-.7h-.7l1-2h1.4l-.3 1c.3 0 1 0 1.4.3.7.3 1 .7.7 1.4-.3 1.7-2.4 2-3.7 2-1.4 0-2-.3-2.7-.7l.5-1.3zm8.9-11.2c-.3-.3-1.4-.7-2-.7-2.4 0-4.1 2-4.4 4.1-.3 1.4 0 2.7 2 2.7.7 0 1.7-.3 2.4-.7l-.7 2.4c-1 .3-2 .7-2.7.7-3.1 0-4.4-2-4.1-4.8.7-3.7 3.7-6.8 7.8-6.8 1 0 2 .3 2.7.3l-1 2.8zM365.8 466.7c-1.7 0-2-1-1.7-2.7.3-2 2-4.4 4.1-4.4 1.7 0 2 1.4 1.7 2.7 0 1.7-1.7 4.4-4.1 4.4zm3.1-9.2c-3.7 0-7.1 2.7-7.8 6.5-.3 3.1 1 5.1 4.4 5.1 4.1 0 7.1-2.7 7.8-6.8.4-3.1-1.7-4.8-4.4-4.8zM379.8 459.2c.3-.7.3-1.4.7-1.7h2.7l-.3 1c1-.7 2-1.4 3.4-1.4 2 0 3.4 1.4 3.1 3.4 0 .7-.3 1.7-.7 2.4l-2 5.4h-3.1l2-5.1c.3-.7.7-1.4.7-2.4s-.3-1.7-1.4-1.7c-2 0-3.1 1.7-3.7 3.4l-2 5.4H376l3.8-8.7zM409.7 459.6c1.4 0 2 1.4 1.7 2.7-.3 2-2 4.4-4.1 4.4-1.4 0-1.7-1.4-1.4-2.7.1-1.7 1.4-4.4 3.8-4.4zm5.4-7.2l-2.4 6.5c-.7-1-1.7-1.7-3.1-1.7-3.7 0-6.1 3.7-6.8 7.1-.3 2.4.3 4.8 3.1 4.8 1.7 0 3.1-.7 4.1-2l-.7 1.7h2.7c0-.7.3-1.4.7-2.4l5.1-13.6h-2.7v-.4zM422.6 453.8h2.7l-1 5.4h-2.7l1-5.4zM430.1 465.7c.3-1.7 2.7-2 4.1-2h1c-.7 1.7-1.7 3.4-3.7 3.4-.7-.4-1.4-.7-1.4-1.4zm3.7 3.1h2.4c.7-2 2.4-6.5 2.7-7.8.3-2.7-1.7-3.4-3.7-3.4-1.4 0-2.7.3-4.1.7l-.7 2.4c1.4-.7 2.4-1 3.7-1 1 0 2 .3 2 1.4 0 .3 0 .7-.3 1h-1c-2.7 0-6.8.3-7.5 4.1-.3 2 1 3.1 3.1 3.1 1.7 0 2.7-.7 4.1-2l-.7 1.5zM444.7 457.5h3.1l-.3 8.2 5.8-8.2h3.1l-8.2 11.2h-3.1l-.4-11.2zM460.4 465.7c.3-1.7 2.7-2 4.1-2h1c-.7 1.7-1.7 3.4-3.7 3.4-.8-.4-1.4-.7-1.4-1.4zm3.4 3.1h2.4c.7-2 2.4-6.5 2.7-7.8.3-2.7-1.7-3.4-3.7-3.4-1.4 0-2.7.3-4.1.7l-.7 2.4c1.4-.7 2.4-1 3.7-1 1 0 2 .3 2 1.4 0 .3 0 .7-.3 1h-1c-2.7 0-6.8.3-7.5 4.1-.3 2 1 3.1 3.1 3.1 1.7 0 2.7-.7 4.1-2l-.7 1.5zM475.7 459.2c.3-.7.3-1.4.7-1.7h2.7l-.3 1c1-.7 2-1.4 3.4-1.4 2 0 3.4 1.4 3.1 3.4 0 .7-.3 1.7-.7 2.4l-2 5.4h-3.1l2-5.1c.3-.7.7-1.4.7-2.4s-.3-1.7-1.4-1.7c-2 0-3.1 1.7-3.7 3.4l-2 5.4H472l3.7-8.7zM499.1 460.3c-.3-.3-1.4-.7-2-.7-2.4 0-4.1 2-4.4 4.1-.3 1.4 0 2.7 2 2.7.7 0 1.7-.3 2.4-.7l-.7 2.4c-1 .3-2 .7-3.1.7-3.1 0-4.4-2-4.1-4.8.7-3.7 3.7-6.8 7.8-6.8 1 0 2 .3 2.7.3l-.6 2.8zM504.9 464c-.3 2 .7 2.7 2.7 2.7 1.4 0 2.4-.3 3.4-.7l-.7 2.4c-1 .3-2.4.7-3.7.7-3.1 0-5.1-1.7-4.8-4.8.7-3.4 3.7-6.8 7.5-6.8 2.7 0 4.4 1.4 4.1 4.1 0 .7-.3 1.7-.7 2.4h-7.8zm5.8-2c0-.3 0-.3.3-.7.3-1-.3-1.7-1.7-1.7-1.7 0-2.7 1-3.7 2.7h5.1v-.3zM519.9 459.2c0-.3.3-1 .3-1.4h2.7l-.7 2c.7-1.4 2.4-2.4 3.7-2.4h1l-1 2.7c-.3 0-.7-.3-1-.3-2 0-3.4 1.7-4.1 3.7l-1.7 5.1H516l3.9-9.4z"/><path fill="none" d="M0 243h612v306H0z"/></symbol></svg>