<?xml version="1.0" encoding="utf-8" standalone="yes"?><!DOCTYPE svg PUBLIC "-//W3C//DTD SVG 1.1//EN" "http://www.w3.org/Graphics/SVG/1.1/DTD/svg11.dtd"><svg xmlns="http://www.w3.org/2000/svg" xmlns:xlink="http://www.w3.org/1999/xlink"><symbol viewBox="0 0 900 600" id="fr" xmlns="http://www.w3.org/2000/svg"><path fill="#ED2939" d="M0 0h900v600H0z"/><path fill="#fff" d="M0 0h600v600H0z"/><path fill="#002395" d="M0 0h300v600H0z"/></symbol><symbol viewBox="0 0 60 30" id="gb" xmlns="http://www.w3.org/2000/svg"><clipPath id="ba"><path d="M30 15h30v15zv15H0zH0V0zV0h30z"/></clipPath><path d="M0 0v30h60V0z" fill="#00247d"/><path d="M0 0l60 30m0-30L0 30" stroke="#fff" stroke-width="6"/><path d="M0 0l60 30m0-30L0 30" clip-path="url(#ba)" stroke="#cf142b" stroke-width="4"/><path d="M30 0v30M0 15h60" stroke="#fff" stroke-width="10"/><path d="M30 0v30M0 15h60" stroke="#cf142b" stroke-width="6"/></symbol><symbol viewBox="0 0 200 65" id="sponsors--2016--deolan_logo" xmlns="http://www.w3.org/2000/svg"><path fill="#BADEFD" d="M65.911 49.646H34.159a1.169 1.169 0 110-2.336h31.752c3.991 0 7.238-3.248 7.238-7.238a7.238 7.238 0 00-6.812-7.225 1.17 1.17 0 01.135-2.334c5.053.293 9.014 4.493 9.014 9.559.001 5.279-4.296 9.574-9.575 9.574z"/><path fill="#202464" d="M50.494 30.039L46.047 33.2l-9.428-1.911a.197.197 0 00-.185.061l-.783.889a.19.19 0 00.013.269l4.898 4.649-2.484 2.066-2.815-1.305a.197.197 0 00-.218.036l-.671.645a.19.19 0 00-.06.137.2.2 0 00.06.142l3.661 3.58a.196.196 0 00.243.024l14.227-9.418a1.82 1.82 0 00.511-2.517 1.818 1.818 0 00-2.522-.508z"/><path fill="#9EBCE1" d="M66.407 32.848c-.447 0-.875-.258-1.068-.692a10.792 10.792 0 00-13.302-5.832 1.167 1.167 0 11-.748-2.212 13.085 13.085 0 014.202-.692c5.173 0 9.876 3.057 11.982 7.787a1.166 1.166 0 01-1.066 1.641z"/><path fill="#778DBA" d="M24.158 28.874a1.168 1.168 0 01-1.101-1.559 16.39 16.39 0 0115.426-10.908c5.842 0 11.279 3.153 14.194 8.229a1.167 1.167 0 11-2.027 1.162 14.073 14.073 0 00-12.168-7.055 14.048 14.048 0 00-13.223 9.35c-.169.48-.619.781-1.101.781z"/><path fill="#4E5C92" d="M24.199 49.646c-6.373 0-11.555-5.185-11.555-11.556 0-6.347 5.163-11.531 11.509-11.555h.005a1.167 1.167 0 01.004 2.337c-5.063.019-9.182 4.154-9.182 9.217 0 5.084 4.136 9.22 9.219 9.22 2.043 0 5.351-.808 9.504-4.653l.079-.074a1.17 1.17 0 011.585 1.717l-.077.07c-3.779 3.503-7.51 5.277-11.091 5.277z"/><path fill="#202464" d="M116.929 35.571c-.998 1.042-2.431 1.644-3.9 1.644-2.714 0-4.802-1.939-5.429-4.504h13.482c.153 0 .227-.141.232-.212.045-.443.066-.902.066-1.338 0-4.653-3.727-8.501-8.411-8.501-4.832 0-8.472 3.908-8.472 8.68 0 4.624 3.698 8.71 8.412 8.71 2.705 0 5.104-1.261 6.665-3.309.062-.082.053-.297-.098-.354-.15-.059-2.17-.833-2.279-.874-.109-.041-.231.019-.268.058zm-3.99-10.079c2.685 0 5.16 2.118 5.339 4.833H107.6c.179-2.716 2.655-4.833 5.339-4.833zM131.709 40.049c-4.862 0-8.643-3.908-8.643-8.8 0-4.862 3.87-8.591 8.643-8.591 4.832 0 8.643 3.759 8.643 8.651 0 4.712-3.632 8.74-8.643 8.74zm0-14.557c-3.222 0-5.541 2.625-5.541 5.847 0 3.221 2.319 5.876 5.541 5.876 3.252 0 5.54-2.685 5.54-5.906s-2.318-5.817-5.54-5.817zM102.717 17.792a.234.234 0 00-.234-.235H99.85a.235.235 0 00-.235.235v7.342h-.059c-1.312-1.67-3.521-2.476-5.609-2.476-5.011 0-8.59 3.818-8.59 8.77 0 4.922 3.64 8.621 8.59 8.621 2.298 0 4.475-.866 5.848-2.775h.053v2.122c0 .13.104.235.233.235h2.402c.13 0 .234-.105.234-.235V17.792zm-8.621 19.423c-3.161 0-5.637-2.715-5.637-5.817 0-3.222 2.386-5.906 5.666-5.906 3.371 0 5.729 2.595 5.729 5.906 0 3.192-2.537 5.817-5.758 5.817zM145.097 39.396c0 .13-.106.235-.235.235h-2.633a.234.234 0 01-.234-.235V17.792c0-.13.104-.235.234-.235h2.633c.129 0 .235.105.235.235v21.604zM164.29 23.105h-2.633a.234.234 0 00-.234.235v2.091h-.062c-1.221-1.878-3.399-2.774-5.606-2.774-5.011 0-8.77 3.759-8.77 8.771 0 4.981 3.818 8.621 8.77 8.621 2.268 0 4.445-.985 5.606-2.984h.062v2.331c0 .13.104.235.234.235h2.633c.13 0 .235-.105.235-.235V23.34a.235.235 0 00-.235-.235zm-8.564 14.11c-3.162 0-5.638-2.715-5.638-5.817 0-3.222 2.386-5.906 5.667-5.906 3.37 0 5.727 2.595 5.727 5.906-.001 3.192-2.535 5.817-5.756 5.817zM181.295 25.611c-1.282-2.028-3.489-2.953-5.847-2.953-1.908 0-3.639.626-4.832 2.208h-.06l-.016-1.525a.235.235 0 00-.235-.234h-2.407a.235.235 0 00-.235.234v16.055c0 .13.105.235.235.235h2.632c.13 0 .235-.105.235-.235v-8.773c0-2.774 1.312-5.13 4.354-5.13 3.281 0 4.117 2.356 4.117 5.161v8.743c0 .13.104.235.234.235h2.633c.13 0 .234-.105.234-.235v-9.549c.003-1.463-.236-2.984-1.042-4.237z"/><g fill="#202464"><path d="M86.919 44.554v3.536h-.389v-3.536h-.894v-.352h2.169v.352h-.886zM90.812 48.09v-1.582c0-.272-.068-.594-.272-.787a.916.916 0 00-1.25 0c-.199.188-.269.499-.269.761v1.608h-.368v-3.888h.368v1.382h.011c.188-.294.541-.442.883-.442.824 0 1.266.573 1.266 1.366v1.582h-.369zM95.21 46.787h-2.616c.026.566.551 1.04 1.113 1.04.442 0 .872-.253 1.03-.678h.389a1.505 1.505 0 01-1.413 1.009 1.502 1.502 0 01-1.498-1.504c0-.818.667-1.513 1.492-1.513.841 0 1.508.71 1.508 1.54.001.037-.005.068-.005.106zm-1.497-1.314c-.573 0-1.031.421-1.119.982h2.243c-.095-.561-.547-.982-1.124-.982zM102.317 48.09l-.562-1.309h-1.808l-.567 1.309h-.404l1.66-3.888h.436l1.671 3.888h-.426zm-1.461-3.446l-.762 1.786h1.508l-.746-1.786zM103.626 44.863v-.661h.368v.661h-.368zm0 3.227v-2.873h.368v2.873h-.368zM105.528 46.408v1.682h-.367v-2.874h.367v.414h.011c.156-.367.436-.462.808-.488v.389c-.504.042-.819.363-.819.877zM111.196 44.554v3.536h-.39v-3.536h-.893v-.352h2.17v.352h-.887zM113.155 46.408v1.682h-.367v-2.874h.367v.414h.012c.157-.367.436-.462.809-.488v.389c-.505.042-.821.363-.821.877zM117.369 48.09v-.505h-.011c-.252.379-.672.572-1.118.572-.861 0-1.544-.646-1.544-1.513 0-.862.698-1.503 1.544-1.503.452 0 .872.189 1.118.578h.011v-.504h.367v2.874h-.367v.001zm-1.129-2.617c-.684 0-1.178.51-1.178 1.188 0 .673.506 1.167 1.178 1.167.65 0 1.15-.531 1.15-1.173.001-.641-.499-1.182-1.15-1.182zM121.048 48.09v-1.582c0-.272-.069-.594-.274-.787a.91.91 0 00-1.249 0c-.2.188-.268.499-.268.761v1.608h-.368v-2.873h.368v.367h.011c.188-.294.54-.441.882-.441.825 0 1.267.572 1.267 1.365v1.582h-.369zM123.244 48.158c-.516 0-.882-.373-.882-.888v-.032h.366c.007.331.164.589.516.589.326 0 .536-.185.536-.516 0-.762-1.334-.409-1.334-1.37 0-.473.352-.799.818-.799.442 0 .783.342.783.783h-.367c-.016-.247-.168-.453-.431-.453a.426.426 0 00-.438.431c0 .657 1.336.315 1.336 1.377 0 .552-.362.878-.903.878zM126.591 48.158c-.446 0-.867-.205-1.119-.573h-.011v1.514h-.367v-3.882h.367v.504h.011a1.343 1.343 0 011.119-.578c.847 0 1.545.641 1.545 1.503 0 .866-.683 1.512-1.545 1.512zm0-2.685c-.651 0-1.15.541-1.15 1.182 0 .642.499 1.173 1.15 1.173.673 0 1.177-.494 1.177-1.167 0-.679-.494-1.188-1.177-1.188zM130.542 48.158c-.809 0-1.497-.679-1.497-1.486 0-.83.662-1.529 1.497-1.529.82 0 1.507.688 1.507 1.507 0 .825-.682 1.508-1.507 1.508zm.005-2.685c-.651 0-1.134.558-1.134 1.192 0 .626.498 1.162 1.134 1.162.662 0 1.135-.547 1.135-1.193 0-.625-.504-1.161-1.135-1.161zM133.459 46.408v1.682h-.367v-2.874h.367v.414h.01c.158-.367.437-.462.81-.488v.389c-.506.042-.82.363-.82.877zM135.86 45.547v2.543h-.367v-2.543h-.605v-.331h.605v-1.014h.367v1.014h.688v.331h-.688zM142.867 47.769c-.353.227-.856.321-1.266.321h-1.135v-3.888h1.135c.415 0 .913.095 1.266.319.552.353.883.983.883 1.635 0 .646-.342 1.26-.883 1.613zm-.167-2.915c-.385-.269-.825-.3-1.282-.3h-.562v3.184h.646c.457 0 .866-.037 1.25-.314.398-.291.61-.8.61-1.282 0-.511-.243-1-.662-1.288zM147.364 48.09v-.505h-.01c-.253.379-.672.572-1.119.572-.86 0-1.544-.646-1.544-1.513 0-.862.698-1.503 1.544-1.503.452 0 .872.189 1.119.578h.01v-.504h.368v2.874h-.368v.001zm-1.129-2.617c-.684 0-1.177.51-1.177 1.188 0 .673.505 1.167 1.177 1.167.652 0 1.15-.531 1.15-1.173.001-.641-.498-1.182-1.15-1.182zM149.588 45.547v2.543h-.368v-2.543h-.604v-.331h.604v-1.014h.368v1.014h.688v.331h-.688zM153.702 48.09v-.505h-.012c-.252.379-.672.572-1.118.572-.861 0-1.544-.646-1.544-1.513 0-.862.698-1.503 1.544-1.503.451 0 .872.189 1.118.578h.012v-.504h.367v2.874h-.367v.001zm-1.13-2.617c-.683 0-1.177.51-1.177 1.188 0 .673.504 1.167 1.177 1.167.651 0 1.15-.531 1.15-1.173.001-.641-.498-1.182-1.15-1.182zM160.358 46.298c-.295.2-.657.227-1.004.227h-.694v1.565h-.388v-3.888h1.082c.347 0 .709.025 1.004.226.314.216.482.557.482.935.001.378-.167.72-.482.935zm-.357-1.644c-.222-.105-.426-.101-.668-.101h-.672v1.618h.672c.242 0 .446.006.668-.1a.753.753 0 00.452-.71.753.753 0 00-.452-.707zM161.813 48.09v-3.888h.367v3.888h-.367zM165.9 48.09v-.505h-.011c-.251.379-.672.572-1.118.572-.861 0-1.544-.646-1.544-1.513 0-.862.698-1.503 1.544-1.503.452 0 .872.189 1.118.578h.011v-.504h.368v2.874h-.368v.001zm-1.129-2.617c-.683 0-1.177.51-1.177 1.188 0 .673.504 1.167 1.177 1.167.651 0 1.15-.531 1.15-1.173.001-.641-.498-1.182-1.15-1.182zM168.124 45.547v2.543h-.367v-2.543h-.604v-.331h.604v-1.014h.367v1.014h.688v.331h-.688zM170.258 45.547v2.543h-.368v-2.543h-.447v-.331h.447c.005-.143.01-.289.047-.432.137-.509.573-.646 1.056-.651v.342c-.53 0-.734.215-.734.719v.022h.734v.331h-.735zM173.193 48.158c-.808 0-1.497-.679-1.497-1.486 0-.83.662-1.529 1.497-1.529.82 0 1.509.688 1.509 1.507 0 .825-.683 1.508-1.509 1.508zm.006-2.685c-.651 0-1.135.558-1.135 1.192 0 .626.499 1.162 1.135 1.162.663 0 1.135-.547 1.135-1.193 0-.625-.505-1.161-1.135-1.161zM176.11 46.408v1.682h-.367v-2.874h.367v.414h.011c.157-.367.437-.462.81-.488v.389c-.505.042-.821.363-.821.877zM181.827 48.09v-1.666c0-.51-.216-.951-.784-.951-.566 0-.782.441-.782.951v1.666h-.367v-1.666c0-.51-.215-.951-.782-.951-.568 0-.783.441-.783.951v1.666h-.368v-2.873h.368v.33c.174-.274.467-.404.783-.404.409 0 .767.194.966.552.22-.353.546-.552.966-.552.735 0 1.15.536 1.15 1.239v1.708h-.367z"/></g></symbol></svg>