<?xml version="1.0" encoding="UTF-8"?>
<svg id="Calque_2" data-name="Calque 2" xmlns="http://www.w3.org/2000/svg" viewBox="0 0 200.36 59.43">
  <defs>
    <style>
      .cls-1 {
        fill: #1f2145;
      }

      .cls-2 {
        fill: #546167;
      }
    </style>
  </defs>
  <g id="Calque_1-2" data-name="Calque 1">
    <g>
      <g>
        <path class="cls-1" d="M87.01,30.54l-6.54-8.96v8.96h-5.28V8.81h5.28v9.33l6.68-9.33h5.76l-7.6,10.79,7.83,10.93h-6.13Z"/>
        <path class="cls-1" d="M100.97,30.54V8.81h5.28v17.2h8.72v4.53h-14Z"/>
        <path class="cls-1" d="M137.27,24.01c0,2.13-.68,3.84-2.04,5.12-1.36,1.28-3.38,1.92-6.06,1.92-1.36,0-2.6-.16-3.71-.48-1.11-.32-2.07-.77-2.86-1.36l-.48-5.07c2.1,1.68,4.37,2.52,6.83,2.52.98,0,1.73-.19,2.26-.56.52-.38.78-.89.78-1.55s-.24-1.16-.72-1.57c-.48-.41-1.39-.85-2.74-1.33-1.91-.66-3.36-1.58-4.34-2.75-.98-1.17-1.47-2.51-1.47-4.01,0-.91.17-1.77.51-2.58.34-.81.83-1.51,1.47-2.11.63-.6,1.42-1.07,2.35-1.42s2-.51,3.2-.51c1.36,0,2.47.14,3.32.41.85.27,1.52.57,2,.89l-.41,4.43c-.52-.33-1.19-.64-2-.91-.81-.28-1.64-.42-2.51-.42-.95,0-1.66.18-2.1.54-.45.36-.67.81-.67,1.33s.23.96.7,1.32c.46.36,1.34.76,2.64,1.19.86.29,1.66.66,2.4,1.1.74.44,1.37.96,1.9,1.55.54.59.95,1.25,1.26,1.97s.46,1.51.46,2.35Z"/>
      </g>
      <g>
        <path class="cls-1" d="M90.51,58.89c-1.31.36-2.78.54-4.41.54-1.48,0-2.92-.24-4.34-.73s-2.69-1.2-3.81-2.15c-1.12-.94-2.03-2.12-2.73-3.52-.69-1.41-1.04-3.04-1.04-4.9s.36-3.53,1.07-4.94c.72-1.41,1.63-2.58,2.76-3.52,1.12-.94,2.38-1.65,3.77-2.13s2.76-.72,4.13-.72c1.5,0,2.85.16,4.04.48,1.19.32,2.19.74,2.98,1.26l-.62,2.86c-.79-.52-1.71-.94-2.74-1.26-1.03-.32-2.13-.48-3.29-.48-1.06,0-2.12.18-3.17.53-1.04.35-1.98.88-2.81,1.58-.83.7-1.5,1.58-2.01,2.64-.51,1.06-.77,2.3-.77,3.73s.25,2.66.75,3.71c.5,1.05,1.16,1.92,1.98,2.63.82.7,1.76,1.23,2.82,1.57,1.06.34,2.14.51,3.26.51,2.01,0,3.54-.38,4.61-1.12v-4.53h-5v-2.69h8.11v8.85c-1.05.84-2.22,1.44-3.52,1.81Z"/>
        <path class="cls-1" d="M117.23,59.03l-6.84-9.53h-3.07v9.53h-3.27v-21.73h6.88c.77,0,1.54.13,2.31.37.77.25,1.47.62,2.1,1.12s1.13,1.14,1.53,1.91c.39.77.59,1.67.59,2.69,0,1.45-.37,2.64-1.11,3.56-.74.92-1.64,1.59-2.71,2.03l7.43,10.05h-3.85ZM113.82,41.93c-.2-.41-.48-.75-.83-1.02-.35-.27-.76-.48-1.21-.61s-.92-.2-1.4-.2h-3.03v6.61h3.03c.48,0,.94-.06,1.4-.19.45-.12.86-.32,1.21-.59.35-.27.63-.62.83-1.04.21-.42.31-.91.31-1.48s-.1-1.06-.31-1.46Z"/>
        <path class="cls-1" d="M148.94,52.88c-.66,1.4-1.53,2.58-2.61,3.54-1.08.96-2.3,1.71-3.68,2.23-1.38.52-2.79.78-4.24.78s-2.87-.26-4.24-.78c-1.37-.52-2.6-1.27-3.68-2.23-1.08-.97-1.95-2.15-2.61-3.54-.66-1.4-.99-2.98-.99-4.75s.33-3.32.99-4.72c.66-1.4,1.53-2.58,2.61-3.54,1.08-.96,2.3-1.71,3.68-2.23,1.37-.52,2.79-.78,4.24-.78s2.86.26,4.24.78c1.37.52,2.6,1.27,3.68,2.23,1.08.97,1.95,2.15,2.61,3.54.66,1.4.99,2.97.99,4.72s-.33,3.35-.99,4.75ZM145.87,44.55c-.48-1.04-1.11-1.93-1.89-2.64-.78-.72-1.66-1.26-2.64-1.63-.98-.38-1.96-.56-2.93-.56s-1.99.19-2.96.56c-.98.37-1.85.92-2.62,1.63-.77.71-1.4,1.59-1.87,2.64s-.72,2.24-.72,3.58.24,2.54.72,3.59c.48,1.06,1.1,1.94,1.87,2.66.77.72,1.64,1.26,2.62,1.64.98.37,1.96.56,2.96.56s1.95-.19,2.93-.56c.98-.38,1.85-.92,2.64-1.64.78-.71,1.41-1.6,1.89-2.66.48-1.06.72-2.25.72-3.59s-.24-2.53-.72-3.58Z"/>
        <path class="cls-1" d="M176.37,54.77c-.44,1-1.06,1.85-1.85,2.54-.8.69-1.73,1.22-2.81,1.58-1.08.36-2.25.54-3.52.54s-2.45-.18-3.52-.54c-1.08-.36-2.02-.89-2.81-1.58-.79-.69-1.41-1.54-1.85-2.54-.44-1-.67-2.13-.67-3.41v-14.06h3.34v13.73c0,1.61.46,2.93,1.38,3.95.92,1.02,2.31,1.53,4.19,1.53s3.28-.51,4.21-1.53,1.39-2.34,1.39-3.95v-13.73h3.2v14.06c0,1.27-.22,2.41-.67,3.41Z"/>
        <path class="cls-1" d="M199.76,46.09c-.39.77-.91,1.41-1.53,1.91s-1.32.87-2.09,1.12-1.54.37-2.31.37h-3.27v9.53h-3.27v-21.73h6.54c.77,0,1.54.13,2.31.37.77.25,1.47.62,2.09,1.12s1.14,1.14,1.53,1.91c.4.77.6,1.67.6,2.69s-.2,1.92-.6,2.69ZM196.71,41.93c-.2-.41-.48-.75-.84-1.02-.35-.27-.75-.48-1.21-.61s-.92-.2-1.4-.2h-2.69v6.61h2.69c.48,0,.94-.06,1.4-.19.45-.12.86-.32,1.21-.59.35-.27.63-.62.84-1.04.21-.42.31-.91.31-1.48s-.1-1.06-.31-1.46Z"/>
      </g>
      <g>
        <polygon class="cls-2" points=".75 33.79 26.37 8.76 42.9 8.76 17.26 33.79 42.9 58.76 26.3 58.76 .75 33.79"/>
        <path class="cls-2" d="M43.23,58.89h-16.98l-.04-.04L.56,33.79l.1-.09L26.32,8.63h16.91l-25.78,25.17,25.78,25.1ZM26.36,58.63h16.22l-25.51-24.83.1-.09,25.41-24.81h-16.15L.94,33.79l25.41,24.83Z"/>
        <rect class="cls-2" y="8.76" width="1.11" height="50"/>
        <polygon class="cls-1" points="62.57 59.12 46.05 59.12 53.89 51.09 36.12 33.71 52.58 17.93 61.19 26.65 60.41 27.42 52.56 19.48 37.71 33.72 55.46 51.08 48.68 58.02 62.1 58.02 69.6 50.28 51.93 33.37 52.7 32.57 71.18 50.25 62.57 59.12"/>
        <polygon class="cls-1" points="34.53 33.76 61.18 7.58 53.59 0 19.15 33.76 44.83 58.76 52.41 51.17 34.53 33.76"/>
      </g>
    </g>
  </g>
</svg>