<svg width="417" height="107" viewBox="0 0 417 107" fill="none" xmlns="http://www.w3.org/2000/svg">
<path d="M139.543 81.2108C136.176 81.2108 133.247 80.6731 130.779 79.61C128.312 78.5469 126.416 76.7629 125.116 74.2334C123.803 71.704 123.159 68.2947 123.171 64.0057L123.232 32.2593L113.338 32.2349V24.2067L123.244 24.2311L124.508 10.4475H132.712L132.688 24.2433L149.096 24.2678V32.296L132.675 32.2716L132.615 64.0179C132.615 67.5616 133.32 69.9566 134.742 71.203C136.164 72.4494 138.667 73.0726 142.265 73.0848H148.33L148.318 81.2352H139.555L139.543 81.2108Z" fill="#1B1512"/>
<path d="M177.829 82.6407C173.478 82.6407 169.685 81.7609 166.428 80.0258C163.171 78.2906 160.667 75.6145 158.917 71.9853C157.167 68.3561 156.292 63.8471 156.304 58.4216L156.364 24.2925H165.808L165.747 57.4196C165.747 63.1506 166.963 67.4274 169.43 70.2501C171.898 73.0851 175.41 74.5025 179.992 74.5025C183.14 74.5025 185.972 73.7449 188.476 72.2053C190.992 70.6656 192.985 68.4417 194.443 65.5456C195.914 62.6496 196.643 59.0937 196.656 54.8657L196.716 24.3536H206.16L206.051 81.321H197.506L196.959 71.3621C195.234 74.9058 192.681 77.6674 189.302 79.6592C185.923 81.651 182.107 82.6407 177.829 82.6285V82.6407Z" fill="#1B1512"/>
<path d="M218.672 81.3576L218.818 0H228.261L228.116 81.3699H218.672V81.3576Z" fill="#1B1512"/>
<path d="M317.835 82.9095C313.265 82.9095 309.448 82.0786 306.373 80.4534C303.298 78.8282 301.025 76.6776 299.53 74.0015C298.035 71.3254 297.294 68.405 297.294 65.2401C297.294 61.4032 298.303 58.1406 300.284 55.4767C302.277 52.8128 305.085 50.7844 308.731 49.3914C312.365 48.0106 316.656 47.314 321.602 47.3263L336.552 47.3507C336.552 43.807 336.017 40.8499 334.935 38.4793C333.854 36.1087 332.286 34.3125 330.22 33.1027C328.166 31.893 325.601 31.282 322.526 31.282C318.928 31.282 315.817 32.174 313.192 33.9825C310.566 35.791 308.95 38.4549 308.342 41.9985H298.68C299.141 37.9172 300.515 34.508 302.8 31.7586C305.085 29.0092 308.002 26.9074 311.527 25.4411C315.051 23.9747 318.722 23.2538 322.55 23.2538C327.789 23.2538 332.152 24.2313 335.64 26.162C339.117 28.0927 341.717 30.7688 343.443 34.2025C345.157 37.6362 346.02 41.6808 346.008 46.3487L345.947 81.6021H337.512L336.965 71.5332C336.212 73.1095 335.252 74.6003 334.097 75.9933C332.93 77.3863 331.569 78.5838 329.989 79.5981C328.409 80.6123 326.634 81.4188 324.641 82.0175C322.66 82.6163 320.387 82.9095 317.835 82.9095ZM319.305 74.8935C321.931 74.8935 324.313 74.3559 326.452 73.2683C328.591 72.1808 330.402 70.6778 331.909 68.7593C333.416 66.8409 334.559 64.7147 335.349 62.3807C336.139 60.0468 336.54 57.6029 336.54 55.0368V54.6946L322.38 54.6702C318.71 54.6702 315.744 55.0979 313.496 55.9533C311.247 56.8208 309.631 58.0184 308.658 59.558C307.686 61.0977 307.188 62.8573 307.188 64.8124C307.188 66.8409 307.649 68.6127 308.585 70.1279C309.521 71.6431 310.907 72.804 312.742 73.6349C314.577 74.4658 316.765 74.8813 319.317 74.8935H319.305Z" fill="#1B1512"/>
<path d="M358.998 106.493L359.143 24.6835H367.688L368.453 33.9703C369.657 32.1618 371.188 30.4511 373.072 28.8381C374.944 27.2251 377.18 25.9054 379.769 24.8912C382.358 23.877 385.372 23.376 388.824 23.376C394.366 23.376 399.179 24.6957 403.263 27.2984C407.347 29.9012 410.519 33.4571 412.792 37.9417C415.065 42.4262 416.207 47.5707 416.195 53.3749C416.195 59.1059 415.028 64.2014 412.743 68.6738C410.446 73.1584 407.237 76.6653 403.117 79.2192C398.997 81.7731 394.16 83.044 388.617 83.0317C384.047 83.0317 380.024 82.0786 376.536 80.1846C373.06 78.3028 370.386 75.6511 368.514 72.2663L368.453 106.505H359.01L358.998 106.493ZM387.608 74.7958C391.279 74.7958 394.536 73.9037 397.393 72.0953C400.249 70.2868 402.473 67.794 404.089 64.5925C405.706 61.3909 406.52 57.6518 406.52 53.3505C406.52 48.9881 405.73 45.1756 404.126 41.9374C402.522 38.6993 400.297 36.1698 397.453 34.3491C394.609 32.5284 391.352 31.6242 387.681 31.6242C383.938 31.6242 380.632 32.5162 377.788 34.3125C374.932 36.1209 372.72 38.6382 371.14 41.8764C369.559 45.1145 368.769 48.9148 368.757 53.2894C368.757 57.5784 369.523 61.3298 371.091 64.5436C372.659 67.7573 374.859 70.2501 377.703 72.0708C380.547 73.8793 383.841 74.7958 387.584 74.808L387.608 74.7958Z" fill="#1B1512"/>
<path fill-rule="evenodd" clip-rule="evenodd" d="M47.4137 15.8942C41.2319 24.3875 37.4465 31.4282 34.8911 41.5863C34.5942 42.7739 34.3185 43.9615 34.0746 45.1491C27.7126 40.1336 23.4183 35.3621 20.5341 31.1313C20.778 29.9543 21.0749 28.7879 21.3824 27.6004C22.8669 22.0548 24.4468 18.7889 27.0552 13.8689C27.3203 13.3917 27.5642 12.9252 27.8187 12.4693C28.1792 11.833 28.5503 11.1968 28.9214 10.5924C29.2183 10.1153 29.5046 9.65934 29.8015 9.21399C30.8088 7.66589 31.8691 6.23443 32.9401 4.96201C33.8202 3.93348 35.0395 3.43512 36.2801 3.43512C36.4392 3.43512 36.6088 3.45633 36.7679 3.46693C36.8845 3.46693 36.9906 3.49874 37.1072 3.51995C37.2557 3.53055 37.3829 3.58357 37.5313 3.61538C37.6586 3.64719 37.7964 3.70021 37.9237 3.76383C38.1994 3.85926 38.4644 4.00771 38.7189 4.16676C38.9416 4.31521 39.1749 4.49546 39.3869 4.70753C39.5142 4.83477 39.6308 4.97262 39.7474 5.09986C40.3306 5.8315 40.988 6.65857 41.6667 7.57046C41.9105 7.89917 42.1544 8.21727 42.3983 8.56718C43.0981 9.51089 43.8297 10.5182 44.5826 11.5786C44.8583 11.9709 45.1234 12.3738 45.399 12.7874C46.0777 13.7947 46.7457 14.8338 47.4137 15.8942Z" fill="#FF6E30"/>
<path fill-rule="evenodd" clip-rule="evenodd" d="M35.6071 88.9326C14.2837 86.5575 3.26681 69.0724 0.891655 57.1117C-0.868505 48.2048 -0.232303 34.3249 4.69826 24.9939C5.15421 24.1456 5.87524 23.6261 6.67049 23.414C7.40212 23.2231 8.19738 23.2974 8.8866 23.6261C9.61823 23.9654 10.2332 24.6016 10.5301 25.5135C11.3148 27.9735 12.6084 31.0167 14.7503 34.4628C15.8848 36.2654 17.2527 38.174 18.8962 40.178C22.1832 44.1861 26.6154 48.5123 32.5533 52.934C32.4579 53.6338 32.3625 54.3336 32.2882 55.0334C32.0974 56.6982 31.9595 58.3841 31.8853 60.0595C31.4294 68.9133 32.3731 77.9263 34.7164 86.7165C34.9285 87.5012 35.236 88.2328 35.6071 88.9114V88.9326Z" fill="#FF6E30"/>
<path fill-rule="evenodd" clip-rule="evenodd" d="M81.115 50.5667C81.0301 51.1817 80.9241 51.8073 80.8075 52.4011L80.7544 52.698C80.659 53.1327 80.5742 53.5781 80.4576 54.0128C80.2985 54.7127 80.1289 55.4125 79.9486 56.0911C79.9274 56.1229 79.9274 56.1547 79.9168 56.1865C79.7683 56.7591 79.6093 57.3105 79.429 57.8619C79.0579 59.0389 78.6444 60.2052 78.1884 61.3398C78.0294 61.7639 77.8491 62.1669 77.6689 62.5804C77.3296 63.3969 76.9478 64.1921 76.5661 64.9768C76.3541 65.4115 76.1314 65.8569 75.8875 66.2916C75.5482 66.9278 75.1877 67.564 74.8166 68.2002C74.5727 68.6032 74.3288 69.0167 74.0637 69.409C73.6926 69.9922 73.3109 70.5648 72.908 71.1374C72.6323 71.5403 72.3354 71.9538 72.0491 72.3462C71.7098 72.8233 71.3493 73.2793 70.9781 73.7246C70.6176 74.1806 70.2465 74.6365 69.8542 75.0713C69.4831 75.506 69.0908 75.9513 68.6984 76.3755C68.3591 76.7466 68.0198 77.1071 67.6593 77.4464C67.3306 77.7751 67.0231 78.0932 66.6944 78.3901C66.6626 78.4219 66.6308 78.4537 66.599 78.4856C66.5883 78.5068 66.5671 78.5174 66.5459 78.5386C66.2172 78.8461 65.8991 79.143 65.5704 79.4187C65.2417 79.7262 64.9236 80.0019 64.5949 80.2775C64.5101 80.3412 64.4359 80.4048 64.351 80.4684C63.9799 80.7971 63.5982 81.0834 63.2165 81.3803C62.6757 81.8044 62.1243 82.2074 61.5518 82.5997C61.4881 82.6527 61.4245 82.6951 61.3609 82.7481C60.8837 83.0768 60.4172 83.395 59.9294 83.6918C59.8128 83.7767 59.7068 83.8509 59.5901 83.9251C59.2932 84.0842 59.0175 84.2644 58.7313 84.4447C58.4344 84.6037 58.1587 84.7734 57.883 84.9112C57.4058 85.1763 56.9499 85.4202 56.4833 85.6429C56.0274 85.8868 55.5502 86.0988 55.0837 86.3109C54.8398 86.4063 54.6065 86.523 54.3627 86.6184C54.1294 86.735 53.8855 86.8305 53.6416 86.9153C51.733 87.6787 49.8032 88.2619 47.8522 88.6543C47.3432 88.7497 46.8449 88.8345 46.3359 88.9193C46.1132 88.9512 45.88 88.9724 45.6573 88.9724C45.3922 88.9724 45.1483 88.9512 44.8939 88.9087C44.7772 88.8875 44.65 88.8557 44.5227 88.8239C44.4061 88.7921 44.2789 88.7603 44.1622 88.7073C44.0456 88.6755 43.9183 88.6224 43.8017 88.58C43.6427 88.5164 43.473 88.4316 43.3139 88.3149C43.2503 88.2937 43.1867 88.2619 43.1337 88.2195C42.9852 88.1347 42.8368 88.0393 42.7096 87.9226C42.6141 87.8378 42.5187 87.7424 42.4339 87.6575C42.3066 87.5621 42.19 87.4243 42.0734 87.297C41.9567 87.1698 41.8613 87.0213 41.7659 86.8941C41.6174 86.682 41.4902 86.4593 41.3947 86.2155C41.2781 85.9716 41.1827 85.7277 41.1191 85.4626C40.8964 84.6143 40.6843 83.7661 40.4828 82.9072C40.3238 82.2392 40.1754 81.5712 40.0481 80.8925C39.9527 80.4048 39.8573 79.917 39.7512 79.4081C39.5604 78.3689 39.3907 77.3086 39.2316 76.2482C39.1998 76.121 39.1786 76.0044 39.168 75.8771C39.1468 75.7817 39.1362 75.665 39.1362 75.5696C39.0726 75.1985 39.0196 74.8168 38.9878 74.4456C38.956 74.3502 38.956 74.2336 38.9348 74.1381C38.8711 73.6186 38.8075 73.0778 38.7545 72.5582C38.7227 72.325 38.7015 72.1023 38.6909 71.8796C38.6379 71.307 38.5742 70.7451 38.5424 70.1725C38.5424 70.0452 38.5212 69.9286 38.5212 69.812C38.5106 69.6635 38.4894 69.5151 38.4894 69.3772V69.356C38.4364 68.5713 38.394 67.7973 38.3728 67.0126C38.341 66.0902 38.3198 65.1358 38.3198 64.1921V64.1073C38.3198 63.715 38.3198 63.2908 38.341 62.8985C38.341 62.4744 38.3622 62.082 38.3728 61.6791C38.3516 61.5307 38.3728 61.3822 38.3728 61.2444C38.4364 59.6327 38.553 58.0103 38.7121 56.3774C38.7333 56.2608 38.7439 56.1441 38.7651 56.0381C38.7863 55.8048 38.8181 55.5821 38.8287 55.3701C38.8499 55.1474 38.8817 54.9353 38.9136 54.7021C38.9666 54.2461 39.0302 53.7902 39.0938 53.3554C39.115 53.2388 39.1256 53.1115 39.1468 52.9949C39.2317 52.3799 39.3271 51.7543 39.4437 51.1393C39.4649 50.9802 39.4967 50.8318 39.5285 50.6727C39.6452 50.0259 39.7512 49.3897 39.8891 48.7535C40.0375 48.0325 40.186 47.3221 40.345 46.601C40.3768 46.4844 40.398 46.3678 40.4298 46.2617C40.5465 45.8376 40.6419 45.4028 40.7585 44.9575C40.9388 44.2789 41.1191 43.5897 41.3099 42.911C41.4902 42.296 41.6704 41.6916 41.8613 41.0766C41.9567 40.7479 42.0522 40.4404 42.1582 40.1329C42.2536 39.8042 42.3703 39.4861 42.4869 39.168C42.6459 38.6909 42.8156 38.2243 42.9746 37.7472C43.1337 37.323 43.3033 36.8883 43.4624 36.4429C43.6427 35.987 43.8335 35.5098 44.0138 35.0645V35.0433C44.0456 34.9479 44.0986 34.8524 44.141 34.7464C44.3001 34.3222 44.5015 33.8981 44.6818 33.474C44.9469 32.859 45.2226 32.2546 45.5088 31.6502C45.6255 31.4169 45.7315 31.173 45.8482 30.9291C45.9648 30.7065 46.0602 30.452 46.1875 30.2081C46.6434 29.2644 47.1312 28.3207 47.6507 27.377C47.8946 26.8998 48.1703 26.4333 48.4354 25.9561C48.4884 25.8713 48.5202 25.8077 48.5626 25.7335C48.5944 25.6698 48.6262 25.6168 48.6581 25.5532C48.9231 25.1185 49.1988 24.6413 49.4745 24.2066C49.7184 23.8036 49.9623 23.3901 50.2273 22.9872C50.4712 22.6161 50.7045 22.2343 50.9484 21.8632C51.2453 21.4391 51.521 21.0149 51.8073 20.5908C51.8285 20.5696 51.8285 20.559 51.8391 20.5378C52.2314 19.9652 52.6237 19.4032 53.0266 18.8412C53.6628 17.9505 54.3309 17.0811 55.0095 16.201C55.3488 15.7768 55.6881 15.3527 56.038 14.9286C56.3667 14.5256 56.706 14.1121 57.0665 13.7092C57.427 13.2744 57.7982 12.8291 58.1905 12.4049C58.9221 11.5779 59.6856 10.7402 60.4808 9.93434C60.5126 9.90253 60.5656 9.84951 60.5974 9.8177C60.6823 9.72227 60.7565 9.65865 60.8413 9.57382C60.8731 9.52081 60.9049 9.489 60.958 9.45719C61.011 9.40417 61.0428 9.36175 61.0852 9.32994C61.2018 9.21331 61.3185 9.10727 61.4245 8.96943C61.7638 8.60891 62.1031 8.2696 62.4848 7.90908C63.0362 7.36831 63.6088 6.83814 64.1814 6.29736C64.6373 5.89443 65.1463 5.57633 65.6659 5.36426C65.8249 5.31124 66.0052 5.26883 66.1748 5.21581H66.2066C66.2066 5.21581 66.2596 5.1946 66.2915 5.1946C66.3551 5.16279 66.4187 5.14159 66.4823 5.14159C66.6308 5.10978 66.7792 5.08857 66.9065 5.07797C66.9701 5.06736 67.0549 5.04616 67.1185 5.06736C67.5957 5.04616 68.0834 5.09917 68.5394 5.21581C68.7302 5.26883 68.9317 5.33245 69.1226 5.40667C69.271 5.47029 69.4301 5.53391 69.5785 5.61874C69.7906 5.73538 70.0026 5.86262 70.1935 6.01107C70.3525 6.13831 70.5222 6.28676 70.6707 6.43521C70.9782 6.7321 71.2432 7.07141 71.4553 7.46374C78.3369 19.7001 83.3735 35.3402 81.1574 50.5137L81.115 50.5667Z" fill="#FF6E30"/>
<path fill-rule="evenodd" clip-rule="evenodd" d="M263.726 82.8115C258.403 82.8115 253.711 81.5529 249.627 79.0601C245.543 76.5673 242.347 73.0725 240.038 68.588C237.728 64.1034 236.574 58.8856 236.586 52.9347C236.586 46.9105 237.753 41.6805 240.038 37.2326C242.335 32.7969 245.556 29.3388 249.725 26.8582C253.893 24.3777 258.67 23.1435 264.054 23.1557C269.597 23.1557 274.3 24.4143 278.153 26.9071C282.006 29.3999 284.959 32.6625 287.013 36.695C289.068 40.7274 290.088 45.1631 290.076 49.9776V52.3482C290.076 53.1791 290.04 54.12 289.955 55.1709L245.828 55.0894C245.99 59.0688 246.818 62.4632 248.302 65.2642C249.98 68.4291 252.192 70.8119 254.914 72.4004C257.649 73.989 260.59 74.7832 263.738 74.7955C267.713 74.7955 270.994 73.9279 273.583 72.1561C276.172 70.3964 278.032 68.0014 279.162 64.9954H288.484C287.573 68.4047 286.005 71.4473 283.744 74.1601C281.495 76.8728 278.7 78.9868 275.358 80.5264C272.015 82.0661 268.138 82.8237 263.726 82.8237V82.8115ZM245.917 47.7459C246.2 44.6613 246.989 42.0082 248.29 39.7865C249.943 36.9638 252.143 34.8254 254.878 33.359C257.613 31.8927 260.59 31.1717 263.811 31.1717C268.6 31.1717 272.586 32.6503 275.771 35.5952C278.955 38.5401 280.645 42.6214 280.863 47.8147L245.917 47.7459Z" fill="#1B1512"/>
</svg>
